M48
; DRILL file {KiCad 9.0.6} date 2025-11-11T17:34:39+0530
; FORMAT={-:-/ absolute / metric / decimal}
; #@! TF.CreationDate,2025-11-11T17:34:39+05:30
; #@! TF.GenerationSoftware,Kicad,Pcbnew,9.0.6
; #@! TF.FileFunction,Plated,1,2,PTH
FMAT,2
METRIC
; #@! TA.AperFunction,Plated,PTH,ComponentDrill
T1C0.203
; #@! TA.AperFunction,Plated,PTH,ViaDrill
T2C0.300
; #@! TA.AperFunction,Plated,PTH,ComponentDrill
T3C0.650
; #@! TA.AperFunction,Plated,PTH,ComponentDrill
T4C0.700
; #@! TA.AperFunction,Plated,PTH,ComponentDrill
T5C0.800
%
G90
G05
T1
X142.0Y-107.0
X142.0Y-108.1
T2
X122.5Y-112.0
X127.0Y-108.5
X137.5Y-109.5
X138.0Y-105.5
X144.0Y-110.5
X144.938Y-109.5
X149.0Y-109.5
X157.0Y-110.5
T3
X130.5Y-94.0
X130.5Y-95.27
X138.0Y-94.0
X138.0Y-95.27
X151.5Y-112.5
T4
X146.28Y-107.5
X148.82Y-107.5
X154.78Y-107.5
X157.32Y-107.5
T5
X122.5Y-104.5
X122.65Y-115.0
X135.2Y-104.5
X135.35Y-115.0
M30
