%TF.GenerationSoftware,KiCad,Pcbnew,9.0.6*%
%TF.CreationDate,2025-11-11T17:34:41+05:30*%
%TF.ProjectId,battery_circuit,62617474-6572-4795-9f63-697263756974,rev?*%
%TF.SameCoordinates,Original*%
%TF.FileFunction,Copper,L2,Bot*%
%TF.FilePolarity,Positive*%
%FSLAX46Y46*%
G04 Gerber Fmt 4.6, Leading zero omitted, Abs format (unit mm)*
G04 Created by KiCad (PCBNEW 9.0.6) date 2025-11-11 17:34:41*
%MOMM*%
%LPD*%
G01*
G04 APERTURE LIST*
%TA.AperFunction,ComponentPad*%
%ADD10C,0.499999*%
%TD*%
%TA.AperFunction,ComponentPad*%
%ADD11C,1.400000*%
%TD*%
%TA.AperFunction,ComponentPad*%
%ADD12R,1.000000X1.000000*%
%TD*%
%TA.AperFunction,ComponentPad*%
%ADD13C,1.600000*%
%TD*%
%TA.AperFunction,ComponentPad*%
%ADD14C,1.000000*%
%TD*%
%TA.AperFunction,ViaPad*%
%ADD15C,0.600000*%
%TD*%
%TA.AperFunction,Conductor*%
%ADD16C,0.200000*%
%TD*%
G04 APERTURE END LIST*
D10*
%TO.P,U1,10*%
%TO.N,GND*%
X142000000Y-107000000D03*
%TO.P,U1,11*%
X142000000Y-108099997D03*
%TD*%
D11*
%TO.P,R5,1*%
%TO.N,+3V6*%
X154780000Y-107500000D03*
%TO.P,R5,2*%
%TO.N,Net-(U1-STAT)*%
X157320000Y-107500000D03*
%TD*%
D12*
%TO.P,J3,1,Pin_1*%
%TO.N,Net-(J3-Pin_1)*%
X151500000Y-112500000D03*
%TD*%
D13*
%TO.P,R7,1*%
%TO.N,Net-(J3-Pin_1)*%
X122500000Y-104500000D03*
%TO.P,R7,2*%
%TO.N,Net-(R7-Pad2)*%
X135200000Y-104500000D03*
%TD*%
D12*
%TO.P,J2,1,Pin_1*%
%TO.N,+3V6*%
X130500000Y-94000000D03*
D14*
%TO.P,J2,2,Pin_2*%
%TO.N,GND*%
X130500000Y-95270000D03*
%TD*%
D11*
%TO.P,R4,1*%
%TO.N,+3V6*%
X146280000Y-107500000D03*
%TO.P,R4,2*%
%TO.N,Net-(U1-PG_N)*%
X148820000Y-107500000D03*
%TD*%
D12*
%TO.P,J1,1,Pin_1*%
%TO.N,+3V6*%
X138000000Y-94000000D03*
D14*
%TO.P,J1,2,Pin_2*%
%TO.N,GND*%
X138000000Y-95270000D03*
%TD*%
D13*
%TO.P,R8,1*%
%TO.N,Net-(R7-Pad2)*%
X122650000Y-115000000D03*
%TO.P,R8,2*%
%TO.N,GND*%
X135350000Y-115000000D03*
%TD*%
D15*
%TO.N,GND*%
X137500000Y-109500000D03*
X138000000Y-105500000D03*
%TO.N,Net-(U1-PG_N)*%
X149000000Y-109500000D03*
X144937500Y-109500000D03*
%TO.N,Net-(U1-STAT)*%
X144000000Y-110500000D03*
X157000000Y-110500000D03*
%TO.N,Net-(R7-Pad2)*%
X127000000Y-108500000D03*
X122500000Y-112000000D03*
%TD*%
D16*
%TO.N,GND*%
X142000000Y-108099997D02*
X140599997Y-108099997D01*
X142000000Y-107000000D02*
X139500000Y-107000000D01*
X139000000Y-106500000D02*
X139000000Y-107500000D01*
X140599997Y-108099997D02*
X139500000Y-107000000D01*
X139000000Y-107500000D02*
X139000000Y-108000000D01*
X139000000Y-108000000D02*
X137500000Y-109500000D01*
X139500000Y-107000000D02*
X139000000Y-107500000D01*
X138000000Y-105500000D02*
X139000000Y-106500000D01*
%TO.N,Net-(U1-PG_N)*%
X144937500Y-109500000D02*
X149000000Y-109500000D01*
%TO.N,Net-(U1-STAT)*%
X144000000Y-110500000D02*
X157000000Y-110500000D01*
%TO.N,Net-(R7-Pad2)*%
X127000000Y-108500000D02*
X123500000Y-112000000D01*
X123500000Y-112000000D02*
X122500000Y-112000000D01*
%TD*%
%TA.AperFunction,Conductor*%
%TO.N,GND*%
G36*
X143443039Y-106019685D02*
G01*
X143488794Y-106072489D01*
X143500000Y-106124000D01*
X143500000Y-109357026D01*
X143480315Y-109424065D01*
X143427511Y-109469820D01*
X143358464Y-109479780D01*
X140125642Y-109017948D01*
X140116088Y-109013595D01*
X140105593Y-109013361D01*
X140084840Y-108999358D01*
X140062060Y-108988980D01*
X140056376Y-108980153D01*
X140047674Y-108974282D01*
X140037786Y-108951284D01*
X140024232Y-108930236D01*
X140023490Y-108918036D01*
X140020076Y-108910094D01*
X140020865Y-108874808D01*
X140025001Y-108849996D01*
X140037072Y-108777573D01*
X141675973Y-108777573D01*
X141781232Y-108821173D01*
X141781240Y-108821175D01*
X141926127Y-108849995D01*
X141926131Y-108849996D01*
X142073869Y-108849996D01*
X142073872Y-108849995D01*
X142218759Y-108821175D01*
X142218767Y-108821173D01*
X142324025Y-108777573D01*
X142000001Y-108453549D01*
X142000000Y-108453549D01*
X141675973Y-108777573D01*
X140037072Y-108777573D01*
X140113541Y-108318756D01*
X140162313Y-108026124D01*
X141250001Y-108026124D01*
X141250001Y-108173869D01*
X141278820Y-108318756D01*
X141278823Y-108318765D01*
X141322421Y-108424021D01*
X141646448Y-108099997D01*
X141626239Y-108079788D01*
X141898400Y-108079788D01*
X141898400Y-108120206D01*
X141913868Y-108157549D01*
X141942448Y-108186129D01*
X141979791Y-108201597D01*
X142020209Y-108201597D01*
X142057552Y-108186129D01*
X142086132Y-108157549D01*
X142101600Y-108120206D01*
X142101600Y-108099996D01*
X142353552Y-108099996D01*
X142353552Y-108099998D01*
X142677576Y-108424022D01*
X142721176Y-108318764D01*
X142721178Y-108318756D01*
X142749998Y-108173869D01*
X142749999Y-108173866D01*
X142749999Y-108026128D01*
X142749998Y-108026124D01*
X142721178Y-107881237D01*
X142721176Y-107881229D01*
X142677576Y-107775970D01*
X142353552Y-108099996D01*
X142101600Y-108099996D01*
X142101600Y-108079788D01*
X142086132Y-108042445D01*
X142057552Y-108013865D01*
X142020209Y-107998397D01*
X141979791Y-107998397D01*
X141942448Y-108013865D01*
X141913868Y-108042445D01*
X141898400Y-108079788D01*
X141626239Y-108079788D01*
X141322422Y-107775971D01*
X141278822Y-107881233D01*
X141278820Y-107881237D01*
X141250001Y-108026124D01*
X140162313Y-108026124D01*
X140166725Y-107999651D01*
X140166725Y-107999650D01*
X140241667Y-107549998D01*
X141803553Y-107549998D01*
X141999999Y-107746444D01*
X142196446Y-107549997D01*
X142000001Y-107353552D01*
X141803553Y-107549998D01*
X140241667Y-107549998D01*
X140253625Y-107478250D01*
X140253625Y-107478249D01*
X140345646Y-106926127D01*
X141250001Y-106926127D01*
X141250001Y-107073872D01*
X141278820Y-107218759D01*
X141278823Y-107218768D01*
X141322421Y-107324024D01*
X141646448Y-107000000D01*
X141626239Y-106979791D01*
X141898400Y-106979791D01*
X141898400Y-107020209D01*
X141913868Y-107057552D01*
X141942448Y-107086132D01*
X141979791Y-107101600D01*
X142020209Y-107101600D01*
X142057552Y-107086132D01*
X142086132Y-107057552D01*
X142101600Y-107020209D01*
X142101600Y-106999999D01*
X142353552Y-106999999D01*
X142353552Y-107000001D01*
X142677576Y-107324025D01*
X142721176Y-107218767D01*
X142721178Y-107218759D01*
X142749998Y-107073872D01*
X142749999Y-107073869D01*
X142749999Y-106926131D01*
X142749998Y-106926127D01*
X142721178Y-106781240D01*
X142721176Y-106781232D01*
X142677576Y-106675973D01*
X142353552Y-106999999D01*
X142101600Y-106999999D01*
X142101600Y-106979791D01*
X142086132Y-106942448D01*
X142057552Y-106913868D01*
X142020209Y-106898400D01*
X141979791Y-106898400D01*
X141942448Y-106913868D01*
X141913868Y-106942448D01*
X141898400Y-106979791D01*
X141626239Y-106979791D01*
X141322422Y-106675974D01*
X141278822Y-106781236D01*
X141278820Y-106781240D01*
X141250001Y-106926127D01*
X140345646Y-106926127D01*
X140350058Y-106899654D01*
X140350058Y-106899653D01*
X140442858Y-106342851D01*
X140442858Y-106342850D01*
X140446263Y-106322422D01*
X141675974Y-106322422D01*
X142000000Y-106646448D01*
X142000001Y-106646448D01*
X142324025Y-106322422D01*
X142218768Y-106278823D01*
X142218759Y-106278820D01*
X142073872Y-106250001D01*
X141926127Y-106250001D01*
X141781240Y-106278820D01*
X141781236Y-106278822D01*
X141675974Y-106322422D01*
X140446263Y-106322422D01*
X140453530Y-106278823D01*
X140482731Y-106103614D01*
X140513169Y-106040723D01*
X140572777Y-106004272D01*
X140605044Y-106000000D01*
X143376000Y-106000000D01*
X143443039Y-106019685D01*
G37*
%TD.AperFunction*%
%TD*%
M02*
