%TF.GenerationSoftware,KiCad,Pcbnew,9.0.6*%
%TF.CreationDate,2025-11-14T16:09:11+05:30*%
%TF.ProjectId,fiveV_2A_LPS,66697665-565f-4324-915f-4c50532e6b69,rev?*%
%TF.SameCoordinates,Original*%
%TF.FileFunction,Copper,L2,Bot*%
%TF.FilePolarity,Positive*%
%FSLAX46Y46*%
G04 Gerber Fmt 4.6, Leading zero omitted, Abs format (unit mm)*
G04 Created by KiCad (PCBNEW 9.0.6) date 2025-11-14 16:09:11*
%MOMM*%
%LPD*%
G01*
G04 APERTURE LIST*
G04 Aperture macros list*
%AMRoundRect*
0 Rectangle with rounded corners*
0 $1 Rounding radius*
0 $2 $3 $4 $5 $6 $7 $8 $9 X,Y pos of 4 corners*
0 Add a 4 corners polygon primitive as box body*
4,1,4,$2,$3,$4,$5,$6,$7,$8,$9,$2,$3,0*
0 Add four circle primitives for the rounded corners*
1,1,$1+$1,$2,$3*
1,1,$1+$1,$4,$5*
1,1,$1+$1,$6,$7*
1,1,$1+$1,$8,$9*
0 Add four rect primitives between the rounded corners*
20,1,$1+$1,$2,$3,$4,$5,0*
20,1,$1+$1,$4,$5,$6,$7,0*
20,1,$1+$1,$6,$7,$8,$9,0*
20,1,$1+$1,$8,$9,$2,$3,0*%
G04 Aperture macros list end*
%ADD10C,0.150000*%
%TA.AperFunction,NonConductor*%
%ADD11C,0.150000*%
%TD*%
%TA.AperFunction,ComponentPad*%
%ADD12RoundRect,0.250001X-1.099999X1.099999X-1.099999X-1.099999X1.099999X-1.099999X1.099999X1.099999X0*%
%TD*%
%TA.AperFunction,ComponentPad*%
%ADD13C,2.700000*%
%TD*%
%TA.AperFunction,ComponentPad*%
%ADD14RoundRect,0.250001X-1.099999X-1.099999X1.099999X-1.099999X1.099999X1.099999X-1.099999X1.099999X0*%
%TD*%
%TA.AperFunction,ComponentPad*%
%ADD15C,2.010000*%
%TD*%
%TA.AperFunction,ComponentPad*%
%ADD16R,2.385000X2.385000*%
%TD*%
%TA.AperFunction,ComponentPad*%
%ADD17C,2.385000*%
%TD*%
%TA.AperFunction,SMDPad,CuDef*%
%ADD18RoundRect,0.237500X0.300000X0.237500X-0.300000X0.237500X-0.300000X-0.237500X0.300000X-0.237500X0*%
%TD*%
%TA.AperFunction,ViaPad*%
%ADD19C,0.250000*%
%TD*%
%TA.AperFunction,ViaPad*%
%ADD20C,0.600000*%
%TD*%
%TA.AperFunction,Conductor*%
%ADD21C,0.200000*%
%TD*%
G04 APERTURE END LIST*
D10*
D11*
X219857142Y-97429580D02*
X219809523Y-97477200D01*
X219809523Y-97477200D02*
X219666666Y-97524819D01*
X219666666Y-97524819D02*
X219571428Y-97524819D01*
X219571428Y-97524819D02*
X219428571Y-97477200D01*
X219428571Y-97477200D02*
X219333333Y-97381961D01*
X219333333Y-97381961D02*
X219285714Y-97286723D01*
X219285714Y-97286723D02*
X219238095Y-97096247D01*
X219238095Y-97096247D02*
X219238095Y-96953390D01*
X219238095Y-96953390D02*
X219285714Y-96762914D01*
X219285714Y-96762914D02*
X219333333Y-96667676D01*
X219333333Y-96667676D02*
X219428571Y-96572438D01*
X219428571Y-96572438D02*
X219571428Y-96524819D01*
X219571428Y-96524819D02*
X219666666Y-96524819D01*
X219666666Y-96524819D02*
X219809523Y-96572438D01*
X219809523Y-96572438D02*
X219857142Y-96620057D01*
X220809523Y-97524819D02*
X220238095Y-97524819D01*
X220523809Y-97524819D02*
X220523809Y-96524819D01*
X220523809Y-96524819D02*
X220428571Y-96667676D01*
X220428571Y-96667676D02*
X220333333Y-96762914D01*
X220333333Y-96762914D02*
X220238095Y-96810533D01*
X221761904Y-97524819D02*
X221190476Y-97524819D01*
X221476190Y-97524819D02*
X221476190Y-96524819D01*
X221476190Y-96524819D02*
X221380952Y-96667676D01*
X221380952Y-96667676D02*
X221285714Y-96762914D01*
X221285714Y-96762914D02*
X221190476Y-96810533D01*
D12*
%TO.P,J1,1,Pin_1*%
%TO.N,Net-(J1-Pin_1)*%
X174000000Y-105500000D03*
D13*
%TO.P,J1,2,Pin_2*%
%TO.N,NEUT*%
X174000000Y-110500000D03*
%TD*%
D14*
%TO.P,J2,1,Pin_1*%
%TO.N,+5V*%
X249500000Y-105000000D03*
D13*
%TO.P,J2,2,Pin_2*%
%TO.N,GND*%
X254500000Y-105000000D03*
%TD*%
D15*
%TO.P,F1,1*%
%TO.N,Net-(J1-Pin_1)*%
X184600000Y-95450000D03*
%TO.P,F1,2*%
%TO.N,AC*%
X183400000Y-100550000D03*
%TD*%
D16*
%TO.P,BR1,1,-*%
%TO.N,GND*%
X192346000Y-101500000D03*
D17*
%TO.P,BR1,2,~_1*%
%TO.N,AC*%
X192346000Y-106580000D03*
%TO.P,BR1,3,~_2*%
%TO.N,NEUT*%
X192346000Y-111660000D03*
%TO.P,BR1,4,+*%
%TO.N,+VDC*%
X192346000Y-116740000D03*
%TD*%
D18*
%TO.P,C11,1*%
%TO.N,Net-(IC1-BOOT)*%
X221362500Y-98500000D03*
%TO.P,C11,2*%
%TO.N,Net-(D1-K)*%
X219637500Y-98500000D03*
%TD*%
D19*
%TO.N,GND*%
X224500000Y-102000000D03*
X223500000Y-102000000D03*
D20*
X219500000Y-101000000D03*
X209000000Y-98500000D03*
X219500000Y-104500000D03*
X219500000Y-99500000D03*
X217000000Y-105500000D03*
X219000000Y-105500000D03*
D19*
X223500000Y-102500000D03*
D20*
X228500000Y-101500000D03*
X214000000Y-105500000D03*
X219500000Y-99500000D03*
X212000000Y-98500000D03*
X209500000Y-105500000D03*
D19*
X223500000Y-103000000D03*
D20*
X229000000Y-103000000D03*
X215500000Y-105500000D03*
D19*
X224500000Y-102500000D03*
D20*
X211500000Y-105500000D03*
D19*
X224500000Y-103000000D03*
D20*
X218500000Y-104000000D03*
X229500000Y-103500000D03*
X230000000Y-101500000D03*
%TO.N,+5V*%
X232000000Y-90500000D03*
X232500000Y-106000000D03*
%TO.N,Net-(D1-K)*%
X214500000Y-91500000D03*
%TO.N,Net-(IC1-BOOT)*%
X223500000Y-99066000D03*
%TO.N,Net-(IC1-FB)*%
X228000000Y-107500000D03*
X226500000Y-106000000D03*
%TD*%
D21*
%TO.N,GND*%
X224500000Y-102500000D02*
X224500000Y-102000000D01*
X219000000Y-105000000D02*
X219500000Y-104500000D01*
X219000000Y-105500000D02*
X219000000Y-105000000D01*
X229500000Y-103500000D02*
X229000000Y-103000000D01*
X211500000Y-105500000D02*
X214000000Y-105500000D01*
X224500000Y-102000000D02*
X220500000Y-102000000D01*
X229000000Y-102500000D02*
X229000000Y-103000000D01*
X224500000Y-102500000D02*
X223500000Y-102500000D01*
X220500000Y-102000000D02*
X219500000Y-101000000D01*
X214000000Y-105500000D02*
X215500000Y-105500000D01*
X230000000Y-101500000D02*
X229000000Y-102500000D01*
X219500000Y-103000000D02*
X218500000Y-104000000D01*
X221500000Y-101500000D02*
X219500000Y-99500000D01*
X223500000Y-103000000D02*
X219500000Y-103000000D01*
X224500000Y-103000000D02*
X224500000Y-102500000D01*
X212000000Y-98500000D02*
X209000000Y-98500000D01*
X217000000Y-105500000D02*
X219000000Y-105500000D01*
X223500000Y-102500000D02*
X223500000Y-103000000D01*
X219000000Y-104500000D02*
X218500000Y-104000000D01*
X209500000Y-105500000D02*
X211500000Y-105500000D01*
X230000000Y-101500000D02*
X228500000Y-101500000D01*
X219500000Y-104500000D02*
X219000000Y-104500000D01*
X223500000Y-102500000D02*
X223500000Y-102000000D01*
X223500000Y-102000000D02*
X224500000Y-102000000D01*
X223500000Y-103000000D02*
X224500000Y-103000000D01*
X219500000Y-99500000D02*
X213000000Y-99500000D01*
X213000000Y-99500000D02*
X212000000Y-98500000D01*
X215500000Y-105500000D02*
X217000000Y-105500000D01*
X228500000Y-101500000D02*
X221500000Y-101500000D01*
%TO.N,+5V*%
X232500000Y-106000000D02*
X232000000Y-105500000D01*
X232000000Y-105500000D02*
X232000000Y-90500000D01*
%TO.N,Net-(D1-K)*%
X219625417Y-98500000D02*
X214500000Y-93374583D01*
X214500000Y-93374583D02*
X214500000Y-91500000D01*
X219637500Y-98500000D02*
X219625417Y-98500000D01*
%TO.N,Net-(IC1-BOOT)*%
X221362500Y-98500000D02*
X222934000Y-98500000D01*
X222934000Y-98500000D02*
X223500000Y-99066000D01*
%TO.N,Net-(IC1-FB)*%
X228000000Y-107500000D02*
X226500000Y-106000000D01*
%TD*%
%TA.AperFunction,Conductor*%
%TO.N,GND*%
G36*
X225443039Y-100519685D02*
G01*
X225488794Y-100572489D01*
X225500000Y-100624000D01*
X225500000Y-108876000D01*
X225480315Y-108943039D01*
X225427511Y-108988794D01*
X225376000Y-109000000D01*
X222124000Y-109000000D01*
X222056961Y-108980315D01*
X222011206Y-108927511D01*
X222000000Y-108876000D01*
X222000000Y-100624000D01*
X222019685Y-100556961D01*
X222072489Y-100511206D01*
X222124000Y-100500000D01*
X225376000Y-100500000D01*
X225443039Y-100519685D01*
G37*
%TD.AperFunction*%
%TD*%
M02*
