%TF.GenerationSoftware,KiCad,Pcbnew,9.0.6*%
%TF.CreationDate,2025-11-14T16:09:11+05:30*%
%TF.ProjectId,fiveV_2A_LPS,66697665-565f-4324-915f-4c50532e6b69,rev?*%
%TF.SameCoordinates,Original*%
%TF.FileFunction,Copper,L1,Top*%
%TF.FilePolarity,Positive*%
%FSLAX46Y46*%
G04 Gerber Fmt 4.6, Leading zero omitted, Abs format (unit mm)*
G04 Created by KiCad (PCBNEW 9.0.6) date 2025-11-14 16:09:11*
%MOMM*%
%LPD*%
G01*
G04 APERTURE LIST*
G04 Aperture macros list*
%AMRoundRect*
0 Rectangle with rounded corners*
0 $1 Rounding radius*
0 $2 $3 $4 $5 $6 $7 $8 $9 X,Y pos of 4 corners*
0 Add a 4 corners polygon primitive as box body*
4,1,4,$2,$3,$4,$5,$6,$7,$8,$9,$2,$3,0*
0 Add four circle primitives for the rounded corners*
1,1,$1+$1,$2,$3*
1,1,$1+$1,$4,$5*
1,1,$1+$1,$6,$7*
1,1,$1+$1,$8,$9*
0 Add four rect primitives between the rounded corners*
20,1,$1+$1,$2,$3,$4,$5,0*
20,1,$1+$1,$4,$5,$6,$7,0*
20,1,$1+$1,$6,$7,$8,$9,0*
20,1,$1+$1,$8,$9,$2,$3,0*%
G04 Aperture macros list end*
%TA.AperFunction,Conductor*%
%ADD10C,0.200000*%
%TD*%
%TA.AperFunction,SMDPad,CuDef*%
%ADD11RoundRect,0.250000X0.650000X-0.412500X0.650000X0.412500X-0.650000X0.412500X-0.650000X-0.412500X0*%
%TD*%
%TA.AperFunction,SMDPad,CuDef*%
%ADD12RoundRect,0.237500X0.250000X0.237500X-0.250000X0.237500X-0.250000X-0.237500X0.250000X-0.237500X0*%
%TD*%
%TA.AperFunction,SMDPad,CuDef*%
%ADD13RoundRect,0.250000X-0.625000X0.400000X-0.625000X-0.400000X0.625000X-0.400000X0.625000X0.400000X0*%
%TD*%
%TA.AperFunction,ComponentPad*%
%ADD14RoundRect,0.250001X-1.099999X1.099999X-1.099999X-1.099999X1.099999X-1.099999X1.099999X1.099999X0*%
%TD*%
%TA.AperFunction,ComponentPad*%
%ADD15C,2.700000*%
%TD*%
%TA.AperFunction,SMDPad,CuDef*%
%ADD16RoundRect,0.317500X-0.382500X-0.317500X0.382500X-0.317500X0.382500X0.317500X-0.382500X0.317500X0*%
%TD*%
%TA.AperFunction,SMDPad,CuDef*%
%ADD17R,4.800000X4.720000*%
%TD*%
%TA.AperFunction,SMDPad,CuDef*%
%ADD18RoundRect,0.237500X0.237500X-0.250000X0.237500X0.250000X-0.237500X0.250000X-0.237500X-0.250000X0*%
%TD*%
%TA.AperFunction,ComponentPad*%
%ADD19RoundRect,0.250001X-1.099999X-1.099999X1.099999X-1.099999X1.099999X1.099999X-1.099999X1.099999X0*%
%TD*%
%TA.AperFunction,SMDPad,CuDef*%
%ADD20RoundRect,0.155000X-0.212500X-0.155000X0.212500X-0.155000X0.212500X0.155000X-0.212500X0.155000X0*%
%TD*%
%TA.AperFunction,SMDPad,CuDef*%
%ADD21RoundRect,0.250000X-1.450000X0.537500X-1.450000X-0.537500X1.450000X-0.537500X1.450000X0.537500X0*%
%TD*%
%TA.AperFunction,SMDPad,CuDef*%
%ADD22R,5.700000X1.600000*%
%TD*%
%TA.AperFunction,SMDPad,CuDef*%
%ADD23RoundRect,0.250000X-0.475000X0.337500X-0.475000X-0.337500X0.475000X-0.337500X0.475000X0.337500X0*%
%TD*%
%TA.AperFunction,SMDPad,CuDef*%
%ADD24R,1.522000X0.700000*%
%TD*%
%TA.AperFunction,SMDPad,CuDef*%
%ADD25R,2.500000X3.500000*%
%TD*%
%TA.AperFunction,SMDPad,CuDef*%
%ADD26RoundRect,0.250000X2.450000X-0.650000X2.450000X0.650000X-2.450000X0.650000X-2.450000X-0.650000X0*%
%TD*%
%TA.AperFunction,ComponentPad*%
%ADD27C,2.010000*%
%TD*%
%TA.AperFunction,ComponentPad*%
%ADD28R,2.385000X2.385000*%
%TD*%
%TA.AperFunction,ComponentPad*%
%ADD29C,2.385000*%
%TD*%
%TA.AperFunction,SMDPad,CuDef*%
%ADD30RoundRect,0.237500X-0.250000X-0.237500X0.250000X-0.237500X0.250000X0.237500X-0.250000X0.237500X0*%
%TD*%
%TA.AperFunction,ViaPad*%
%ADD31C,0.250000*%
%TD*%
%TA.AperFunction,ViaPad*%
%ADD32C,0.600000*%
%TD*%
%TA.AperFunction,Conductor*%
%ADD33C,0.800000*%
%TD*%
%TA.AperFunction,Conductor*%
%ADD34C,2.000000*%
%TD*%
%TA.AperFunction,Conductor*%
%ADD35C,0.500000*%
%TD*%
%TA.AperFunction,Conductor*%
%ADD36C,0.400000*%
%TD*%
%TA.AperFunction,Conductor*%
%ADD37C,1.000000*%
%TD*%
G04 APERTURE END LIST*
D10*
%TO.N,+5V*%
X232500000Y-93000000D02*
X233500000Y-93000000D01*
X236500000Y-93000000D02*
X239000000Y-93000000D01*
%TD*%
D11*
%TO.P,C2,1*%
%TO.N,+VDC*%
X209500000Y-103562500D03*
%TO.P,C2,2*%
%TO.N,GND*%
X209500000Y-100437500D03*
%TD*%
%TO.P,C3,1*%
%TO.N,+VDC*%
X217000000Y-103562500D03*
%TO.P,C3,2*%
%TO.N,GND*%
X217000000Y-100437500D03*
%TD*%
D12*
%TO.P,R3,1*%
%TO.N,+5V*%
X231325000Y-106500000D03*
%TO.P,R3,2*%
%TO.N,Net-(IC1-FB)*%
X229500000Y-106500000D03*
%TD*%
D13*
%TO.P,R1,1*%
%TO.N,Net-(IC1-RT{slash}SYNC)*%
X220500000Y-106950000D03*
%TO.P,R1,2*%
%TO.N,GND*%
X220500000Y-110050000D03*
%TD*%
D14*
%TO.P,J1,1,Pin_1*%
%TO.N,Net-(J1-Pin_1)*%
X174000000Y-105500000D03*
D15*
%TO.P,J1,2,Pin_2*%
%TO.N,NEUT*%
X174000000Y-110500000D03*
%TD*%
D16*
%TO.P,D1,1,K*%
%TO.N,Net-(D1-K)*%
X216460000Y-91735000D03*
%TO.P,D1,2,A*%
%TO.N,GND*%
X218540000Y-91735000D03*
D17*
%TO.P,D1,3*%
%TO.N,N/C*%
X217500000Y-95540000D03*
%TD*%
D18*
%TO.P,R2,1*%
%TO.N,Net-(IC1-COMP)*%
X225000000Y-108912500D03*
%TO.P,R2,2*%
%TO.N,Net-(C6-Pad1)*%
X225000000Y-107087500D03*
%TD*%
D19*
%TO.P,J2,1,Pin_1*%
%TO.N,+5V*%
X249500000Y-105000000D03*
D15*
%TO.P,J2,2,Pin_2*%
%TO.N,GND*%
X254500000Y-105000000D03*
%TD*%
D20*
%TO.P,C7,1*%
%TO.N,Net-(IC1-COMP)*%
X230432500Y-104500000D03*
%TO.P,C7,2*%
%TO.N,GND*%
X231567500Y-104500000D03*
%TD*%
D11*
%TO.P,C5,1*%
%TO.N,+VDC*%
X212000000Y-103562500D03*
%TO.P,C5,2*%
%TO.N,GND*%
X212000000Y-100437500D03*
%TD*%
D21*
%TO.P,C10,1*%
%TO.N,+5V*%
X243000000Y-92862500D03*
%TO.P,C10,2*%
%TO.N,GND*%
X243000000Y-97137500D03*
%TD*%
D22*
%TO.P,L1,1,1*%
%TO.N,Net-(D1-K)*%
X227000000Y-97350000D03*
%TO.P,L1,2,2*%
%TO.N,+5V*%
X227000000Y-92650000D03*
%TD*%
D23*
%TO.P,C6,1*%
%TO.N,Net-(C6-Pad1)*%
X223000000Y-106962500D03*
%TO.P,C6,2*%
%TO.N,GND*%
X223000000Y-109037500D03*
%TD*%
D24*
%TO.P,IC1,1,BOOT*%
%TO.N,Net-(IC1-BOOT)*%
X221286000Y-101095000D03*
%TO.P,IC1,2,VIN*%
%TO.N,+VDC*%
X221286000Y-102365000D03*
%TO.P,IC1,3,EN*%
X221286000Y-103635000D03*
%TO.P,IC1,4,RT/SYNC*%
%TO.N,Net-(IC1-RT{slash}SYNC)*%
X221286000Y-104905000D03*
%TO.P,IC1,5,FB*%
%TO.N,Net-(IC1-FB)*%
X226714000Y-104905000D03*
%TO.P,IC1,6,COMP*%
%TO.N,Net-(IC1-COMP)*%
X226714000Y-103635000D03*
%TO.P,IC1,7,GND_1*%
%TO.N,GND*%
X226714000Y-102365000D03*
%TO.P,IC1,8,SW*%
%TO.N,Net-(D1-K)*%
X226714000Y-101095000D03*
D25*
%TO.P,IC1,9,GND_2*%
%TO.N,GND*%
X224000000Y-103000000D03*
%TD*%
D26*
%TO.P,C1,1*%
%TO.N,NEUT*%
X183500000Y-111100000D03*
%TO.P,C1,2*%
%TO.N,AC*%
X183500000Y-106000000D03*
%TD*%
D21*
%TO.P,C8,1*%
%TO.N,+5V*%
X233000000Y-92862500D03*
%TO.P,C8,2*%
%TO.N,GND*%
X233000000Y-97137500D03*
%TD*%
D11*
%TO.P,C4,1*%
%TO.N,+VDC*%
X214500000Y-103562500D03*
%TO.P,C4,2*%
%TO.N,GND*%
X214500000Y-100437500D03*
%TD*%
D27*
%TO.P,F1,1*%
%TO.N,Net-(J1-Pin_1)*%
X184600000Y-95450000D03*
%TO.P,F1,2*%
%TO.N,AC*%
X183400000Y-100550000D03*
%TD*%
D28*
%TO.P,BR1,1,-*%
%TO.N,GND*%
X192346000Y-101500000D03*
D29*
%TO.P,BR1,2,~_1*%
%TO.N,AC*%
X192346000Y-106580000D03*
%TO.P,BR1,3,~_2*%
%TO.N,NEUT*%
X192346000Y-111660000D03*
%TO.P,BR1,4,+*%
%TO.N,+VDC*%
X192346000Y-116740000D03*
%TD*%
D30*
%TO.P,R4,1*%
%TO.N,Net-(IC1-FB)*%
X229000000Y-109510000D03*
%TO.P,R4,2*%
%TO.N,GND*%
X230825000Y-109510000D03*
%TD*%
D21*
%TO.P,C9,1*%
%TO.N,+5V*%
X238000000Y-93000000D03*
%TO.P,C9,2*%
%TO.N,GND*%
X238000000Y-97275000D03*
%TD*%
D31*
%TO.N,GND*%
X224500000Y-102000000D03*
X223500000Y-102000000D03*
D32*
X219500000Y-101000000D03*
X209000000Y-98500000D03*
X219500000Y-104500000D03*
X219500000Y-99500000D03*
X217000000Y-105500000D03*
X219000000Y-105500000D03*
D31*
X223500000Y-102500000D03*
D32*
X228500000Y-101500000D03*
X214000000Y-105500000D03*
X219500000Y-99500000D03*
X212000000Y-98500000D03*
X209500000Y-105500000D03*
D31*
X223500000Y-103000000D03*
D32*
X229000000Y-103000000D03*
X215500000Y-105500000D03*
D31*
X224500000Y-102500000D03*
D32*
X211500000Y-105500000D03*
D31*
X224500000Y-103000000D03*
D32*
X218500000Y-104000000D03*
X229500000Y-103500000D03*
X230000000Y-101500000D03*
%TO.N,+5V*%
X232000000Y-90500000D03*
X232500000Y-106000000D03*
%TO.N,Net-(D1-K)*%
X214500000Y-91500000D03*
%TO.N,Net-(IC1-BOOT)*%
X223500000Y-99066000D03*
%TO.N,Net-(IC1-FB)*%
X228000000Y-107500000D03*
X226500000Y-106000000D03*
%TD*%
D33*
%TO.N,+VDC*%
X217916500Y-102646000D02*
X220500000Y-102646000D01*
D34*
X192346000Y-116740000D02*
X205523500Y-103562500D01*
X205523500Y-103562500D02*
X212000000Y-103562500D01*
D33*
X220500000Y-102646000D02*
X220500000Y-102849000D01*
D34*
X214500000Y-103562500D02*
X217000000Y-103562500D01*
D33*
X220500000Y-102849000D02*
X221286000Y-103635000D01*
X217916500Y-102646000D02*
X217000000Y-103562500D01*
X220500000Y-102646000D02*
X221005000Y-102646000D01*
D34*
X212000000Y-103562500D02*
X214500000Y-103562500D01*
D35*
%TO.N,NEUT*%
X174000000Y-110500000D02*
X179500000Y-116000000D01*
X179500000Y-115100000D02*
X179500000Y-116000000D01*
X179500000Y-116000000D02*
X188006000Y-116000000D01*
X188006000Y-116000000D02*
X192346000Y-111660000D01*
X183500000Y-111100000D02*
X179500000Y-115100000D01*
%TO.N,AC*%
X189430000Y-106580000D02*
X192346000Y-106580000D01*
D10*
X183400000Y-100550000D02*
X185675000Y-102825000D01*
D35*
X185675000Y-102825000D02*
X185675000Y-103825000D01*
D10*
X185675000Y-102825000D02*
X186000000Y-103150000D01*
D35*
X183400000Y-100550000D02*
X189430000Y-106580000D01*
X185675000Y-103825000D02*
X183500000Y-106000000D01*
D10*
%TO.N,GND*%
X220500000Y-110050000D02*
X221987500Y-110050000D01*
X232111500Y-96249000D02*
X233000000Y-97137500D01*
D36*
X238000000Y-97275000D02*
X242862500Y-97275000D01*
D10*
X243000000Y-110000000D02*
X254000000Y-110000000D01*
X230067500Y-102500000D02*
X231000000Y-102500000D01*
X224026000Y-103026000D02*
X224000000Y-103000000D01*
X214500000Y-100437500D02*
X217000000Y-100437500D01*
X224635000Y-102365000D02*
X224000000Y-103000000D01*
X218500000Y-92000000D02*
X219000000Y-92000000D01*
X219500000Y-101000000D02*
X219500000Y-99500000D01*
X231500000Y-102000000D02*
X232500000Y-101000000D01*
X212000000Y-98500000D02*
X213937500Y-100437500D01*
X213899000Y-91101000D02*
X214201000Y-90799000D01*
X208437500Y-101500000D02*
X209500000Y-100437500D01*
X242862500Y-97275000D02*
X243000000Y-97137500D01*
X229932500Y-102365000D02*
X226714000Y-102365000D01*
X233637500Y-97137500D02*
X233775000Y-97275000D01*
X231567500Y-103067500D02*
X231000000Y-102500000D01*
X231339943Y-109510000D02*
X234601000Y-106248943D01*
X223663500Y-109701000D02*
X223000000Y-109037500D01*
X216100000Y-100437500D02*
X213899000Y-98236500D01*
X226479600Y-108000000D02*
X226479600Y-108688534D01*
X221987500Y-110050000D02*
X223000000Y-109037500D01*
X219500000Y-99500000D02*
X218562500Y-100437500D01*
X219000000Y-108550000D02*
X220500000Y-110050000D01*
X231567500Y-104500000D02*
X230488900Y-105578600D01*
X192346000Y-101500000D02*
X208437500Y-101500000D01*
X223249000Y-96249000D02*
X222500000Y-95500000D01*
X213899000Y-98236500D02*
X213899000Y-91101000D01*
X226479600Y-108688534D02*
X225467134Y-109701000D01*
X222500000Y-92000000D02*
X222235000Y-91735000D01*
X219000000Y-105500000D02*
X219000000Y-108550000D01*
D36*
X233000000Y-100500000D02*
X232500000Y-101000000D01*
D10*
X217000000Y-100437500D02*
X216100000Y-100437500D01*
X228901000Y-105578600D02*
X226479600Y-108000000D01*
X217604000Y-90799000D02*
X218540000Y-91735000D01*
X254500000Y-110500000D02*
X254500000Y-105000000D01*
X225467134Y-109701000D02*
X223663500Y-109701000D01*
X230825000Y-109510000D02*
X231339943Y-109510000D01*
X218562500Y-100437500D02*
X217000000Y-100437500D01*
X223249000Y-96249000D02*
X232111500Y-96249000D01*
X230067500Y-102500000D02*
X229932500Y-102365000D01*
X209500000Y-100437500D02*
X212000000Y-100437500D01*
X231000000Y-102500000D02*
X231500000Y-102000000D01*
X231567500Y-104500000D02*
X231567500Y-103067500D01*
X233000000Y-97137500D02*
X233637500Y-97137500D01*
X230488900Y-105578600D02*
X228901000Y-105578600D01*
X243000000Y-97137500D02*
X243000000Y-110000000D01*
X226714000Y-102365000D02*
X224635000Y-102365000D01*
X234601000Y-105101000D02*
X231500000Y-102000000D01*
D36*
X233775000Y-97275000D02*
X238000000Y-97275000D01*
D10*
X209000000Y-98500000D02*
X209000000Y-99000000D01*
X213937500Y-100437500D02*
X214500000Y-100437500D01*
X254000000Y-110000000D02*
X254500000Y-110500000D01*
X209000000Y-99000000D02*
X209500000Y-99500000D01*
X212000000Y-100437500D02*
X214500000Y-100437500D01*
X234601000Y-106248943D02*
X234601000Y-105101000D01*
X222235000Y-91735000D02*
X218540000Y-91735000D01*
X222500000Y-95500000D02*
X222500000Y-92000000D01*
D36*
X233000000Y-97137500D02*
X233000000Y-100500000D01*
D10*
X209500000Y-99500000D02*
X209500000Y-100437500D01*
X214201000Y-90799000D02*
X217604000Y-90799000D01*
%TO.N,Net-(C6-Pad1)*%
X223125000Y-107087500D02*
X223000000Y-106962500D01*
X225000000Y-107087500D02*
X223125000Y-107087500D01*
%TO.N,Net-(IC1-COMP)*%
X228500000Y-104500000D02*
X230432500Y-104500000D01*
X225000000Y-108912500D02*
X228500000Y-105412500D01*
X226714000Y-103635000D02*
X227135000Y-103635000D01*
X228000000Y-104500000D02*
X228500000Y-104500000D01*
X228500000Y-105412500D02*
X228500000Y-104500000D01*
X227135000Y-103635000D02*
X228000000Y-104500000D01*
%TO.N,+5V*%
X232787500Y-92650000D02*
X233000000Y-92862500D01*
D34*
X241000000Y-93000000D02*
X242862500Y-93000000D01*
X227000000Y-92650000D02*
X232787500Y-92650000D01*
D10*
X242862500Y-93000000D02*
X243000000Y-92862500D01*
D34*
X238000000Y-93000000D02*
X241000000Y-93000000D01*
X254500000Y-93000000D02*
X249500000Y-98000000D01*
D10*
X232000000Y-91862500D02*
X232787500Y-92650000D01*
D34*
X233000000Y-92862500D02*
X237862500Y-92862500D01*
D10*
X237862500Y-92862500D02*
X238000000Y-93000000D01*
D34*
X249500000Y-98000000D02*
X249500000Y-105000000D01*
X241000000Y-93000000D02*
X254500000Y-93000000D01*
D10*
X231325000Y-106500000D02*
X232000000Y-106500000D01*
X232000000Y-90500000D02*
X232000000Y-91862500D01*
X232000000Y-106500000D02*
X232500000Y-106000000D01*
%TO.N,Net-(D1-K)*%
X214759000Y-98466000D02*
X214759000Y-92741000D01*
X226428000Y-97922000D02*
X227000000Y-97350000D01*
X227000000Y-97350000D02*
X225884000Y-98466000D01*
X214759000Y-92741000D02*
X215765000Y-91735000D01*
X226714000Y-97636000D02*
X227000000Y-97350000D01*
X215765000Y-91735000D02*
X216460000Y-91735000D01*
X225884000Y-98466000D02*
X214759000Y-98466000D01*
X214735000Y-91735000D02*
X214500000Y-91500000D01*
X216460000Y-91735000D02*
X214735000Y-91735000D01*
D37*
X226714000Y-101095000D02*
X226714000Y-97636000D01*
D10*
X216420000Y-92000000D02*
X215903000Y-92000000D01*
%TO.N,Net-(IC1-BOOT)*%
X221664000Y-99066000D02*
X221286000Y-99444000D01*
X223500000Y-99066000D02*
X221664000Y-99066000D01*
X221286000Y-99444000D02*
X221286000Y-101095000D01*
D35*
%TO.N,Net-(J1-Pin_1)*%
X174550000Y-105500000D02*
X184600000Y-95450000D01*
D10*
X174000000Y-105500000D02*
X174550000Y-105500000D01*
%TO.N,Net-(IC1-FB)*%
X229000000Y-107000000D02*
X229500000Y-106500000D01*
X229500000Y-106500000D02*
X229000000Y-106500000D01*
X229000000Y-109510000D02*
X229000000Y-107000000D01*
X226500000Y-106000000D02*
X226500000Y-105119000D01*
X226500000Y-105119000D02*
X226714000Y-104905000D01*
X229000000Y-106500000D02*
X228000000Y-107500000D01*
%TO.N,Net-(IC1-RT{slash}SYNC)*%
X220500000Y-106950000D02*
X220500000Y-105691000D01*
X220500000Y-105691000D02*
X221286000Y-104905000D01*
%TD*%
M02*
