%TF.GenerationSoftware,KiCad,Pcbnew,9.0.6*%
%TF.CreationDate,2025-11-11T17:50:26+05:30*%
%TF.ProjectId,torch_light_portion,746f7263-685f-46c6-9967-68745f706f72,rev?*%
%TF.SameCoordinates,Original*%
%TF.FileFunction,Copper,L2,Bot*%
%TF.FilePolarity,Positive*%
%FSLAX46Y46*%
G04 Gerber Fmt 4.6, Leading zero omitted, Abs format (unit mm)*
G04 Created by KiCad (PCBNEW 9.0.6) date 2025-11-11 17:50:26*
%MOMM*%
%LPD*%
G01*
G04 APERTURE LIST*
G04 Aperture macros list*
%AMRoundRect*
0 Rectangle with rounded corners*
0 $1 Rounding radius*
0 $2 $3 $4 $5 $6 $7 $8 $9 X,Y pos of 4 corners*
0 Add a 4 corners polygon primitive as box body*
4,1,4,$2,$3,$4,$5,$6,$7,$8,$9,$2,$3,0*
0 Add four circle primitives for the rounded corners*
1,1,$1+$1,$2,$3*
1,1,$1+$1,$4,$5*
1,1,$1+$1,$6,$7*
1,1,$1+$1,$8,$9*
0 Add four rect primitives between the rounded corners*
20,1,$1+$1,$2,$3,$4,$5,0*
20,1,$1+$1,$4,$5,$6,$7,0*
20,1,$1+$1,$6,$7,$8,$9,0*
20,1,$1+$1,$8,$9,$2,$3,0*%
G04 Aperture macros list end*
%TA.AperFunction,ComponentPad*%
%ADD10RoundRect,0.300000X-0.300000X-0.600000X0.300000X-0.600000X0.300000X0.600000X-0.300000X0.600000X0*%
%TD*%
%TA.AperFunction,ComponentPad*%
%ADD11O,1.200000X1.800000*%
%TD*%
%TA.AperFunction,ViaPad*%
%ADD12C,0.600000*%
%TD*%
%TA.AperFunction,Conductor*%
%ADD13C,0.200000*%
%TD*%
G04 APERTURE END LIST*
D10*
%TO.P,J1,1,Pin_1*%
%TO.N,+3.3V*%
X128500000Y-90500000D03*
D11*
%TO.P,J1,2,Pin_2*%
%TO.N,GND*%
X130500000Y-90500000D03*
%TD*%
D12*
%TO.N,Net-(D1-A)*%
X128000000Y-102000000D03*
X123000000Y-103000000D03*
%TO.N,+3.3V*%
X128500000Y-87500000D03*
X131500000Y-87000000D03*
%TD*%
D13*
%TO.N,Net-(D1-A)*%
X127000000Y-103000000D02*
X128000000Y-102000000D01*
X123000000Y-103000000D02*
X127000000Y-103000000D01*
%TO.N,+3.3V*%
X131500000Y-87000000D02*
X129000000Y-87000000D01*
X129000000Y-87000000D02*
X128500000Y-87500000D01*
%TD*%
%TA.AperFunction,NonConductor*%
G36*
X138943039Y-97519685D02*
G01*
X138988794Y-97572489D01*
X139000000Y-97624000D01*
X139000000Y-100376000D01*
X138980315Y-100443039D01*
X138927511Y-100488794D01*
X138876000Y-100500000D01*
X135124000Y-100500000D01*
X135056961Y-100480315D01*
X135011206Y-100427511D01*
X135000000Y-100376000D01*
X135000000Y-97624000D01*
X135019685Y-97556961D01*
X135072489Y-97511206D01*
X135124000Y-97500000D01*
X138876000Y-97500000D01*
X138943039Y-97519685D01*
G37*
%TD.AperFunction*%
%TA.AperFunction,NonConductor*%
G36*
X123943039Y-105519685D02*
G01*
X123988794Y-105572489D01*
X124000000Y-105624000D01*
X124000000Y-108376000D01*
X123980315Y-108443039D01*
X123927511Y-108488794D01*
X123876000Y-108500000D01*
X120124000Y-108500000D01*
X120056961Y-108480315D01*
X120011206Y-108427511D01*
X120000000Y-108376000D01*
X120000000Y-105624000D01*
X120019685Y-105556961D01*
X120072489Y-105511206D01*
X120124000Y-105500000D01*
X123876000Y-105500000D01*
X123943039Y-105519685D01*
G37*
%TD.AperFunction*%
%TA.AperFunction,NonConductor*%
G36*
X138443039Y-89519685D02*
G01*
X138488794Y-89572489D01*
X138500000Y-89624000D01*
X138500000Y-92376000D01*
X138480315Y-92443039D01*
X138427511Y-92488794D01*
X138376000Y-92500000D01*
X134624000Y-92500000D01*
X134556961Y-92480315D01*
X134511206Y-92427511D01*
X134500000Y-92376000D01*
X134500000Y-89624000D01*
X134519685Y-89556961D01*
X134572489Y-89511206D01*
X134624000Y-89500000D01*
X138376000Y-89500000D01*
X138443039Y-89519685D01*
G37*
%TD.AperFunction*%
%TA.AperFunction,NonConductor*%
G36*
X137943039Y-105519685D02*
G01*
X137988794Y-105572489D01*
X138000000Y-105624000D01*
X138000000Y-108376000D01*
X137980315Y-108443039D01*
X137927511Y-108488794D01*
X137876000Y-108500000D01*
X134124000Y-108500000D01*
X134056961Y-108480315D01*
X134011206Y-108427511D01*
X134000000Y-108376000D01*
X134000000Y-105624000D01*
X134019685Y-105556961D01*
X134072489Y-105511206D01*
X134124000Y-105500000D01*
X137876000Y-105500000D01*
X137943039Y-105519685D01*
G37*
%TD.AperFunction*%
%TA.AperFunction,NonConductor*%
G36*
X130443039Y-97019685D02*
G01*
X130488794Y-97072489D01*
X130500000Y-97124000D01*
X130500000Y-99876000D01*
X130480315Y-99943039D01*
X130427511Y-99988794D01*
X130376000Y-100000000D01*
X126624000Y-100000000D01*
X126556961Y-99980315D01*
X126511206Y-99927511D01*
X126500000Y-99876000D01*
X126500000Y-97124000D01*
X126519685Y-97056961D01*
X126572489Y-97011206D01*
X126624000Y-97000000D01*
X130376000Y-97000000D01*
X130443039Y-97019685D01*
G37*
%TD.AperFunction*%
%TA.AperFunction,NonConductor*%
G36*
X124443039Y-88519685D02*
G01*
X124488794Y-88572489D01*
X124500000Y-88624000D01*
X124500000Y-91376000D01*
X124480315Y-91443039D01*
X124427511Y-91488794D01*
X124376000Y-91500000D01*
X120624000Y-91500000D01*
X120556961Y-91480315D01*
X120511206Y-91427511D01*
X120500000Y-91376000D01*
X120500000Y-88624000D01*
X120519685Y-88556961D01*
X120572489Y-88511206D01*
X120624000Y-88500000D01*
X124376000Y-88500000D01*
X124443039Y-88519685D01*
G37*
%TD.AperFunction*%
%TA.AperFunction,NonConductor*%
G36*
X121943039Y-96019685D02*
G01*
X121988794Y-96072489D01*
X122000000Y-96124000D01*
X122000000Y-98876000D01*
X121980315Y-98943039D01*
X121927511Y-98988794D01*
X121876000Y-99000000D01*
X118124000Y-99000000D01*
X118056961Y-98980315D01*
X118011206Y-98927511D01*
X118000000Y-98876000D01*
X118000000Y-96124000D01*
X118019685Y-96056961D01*
X118072489Y-96011206D01*
X118124000Y-96000000D01*
X121876000Y-96000000D01*
X121943039Y-96019685D01*
G37*
%TD.AperFunction*%
M02*
