%TF.GenerationSoftware,KiCad,Pcbnew,9.0.6*%
%TF.CreationDate,2025-11-11T17:50:26+05:30*%
%TF.ProjectId,torch_light_portion,746f7263-685f-46c6-9967-68745f706f72,rev?*%
%TF.SameCoordinates,Original*%
%TF.FileFunction,Legend,Top*%
%TF.FilePolarity,Positive*%
%FSLAX46Y46*%
G04 Gerber Fmt 4.6, Leading zero omitted, Abs format (unit mm)*
G04 Created by KiCad (PCBNEW 9.0.6) date 2025-11-11 17:50:26*
%MOMM*%
%LPD*%
G01*
G04 APERTURE LIST*
%ADD10C,0.100000*%
%ADD11C,0.150000*%
%ADD12C,0.120000*%
G04 APERTURE END LIST*
D10*
X145064451Y-98533296D02*
G75*
G02*
X112935549Y-98533296I-16064451J0D01*
G01*
X112935549Y-98533296D02*
G75*
G02*
X145064451Y-98533296I16064451J0D01*
G01*
X126803884Y-87491466D02*
X127565789Y-87491466D01*
X127184836Y-87872419D02*
X127184836Y-87110514D01*
X133303884Y-88491466D02*
X134065789Y-88491466D01*
D11*
X119761905Y-95554819D02*
X119761905Y-94554819D01*
X119761905Y-94554819D02*
X120000000Y-94554819D01*
X120000000Y-94554819D02*
X120142857Y-94602438D01*
X120142857Y-94602438D02*
X120238095Y-94697676D01*
X120238095Y-94697676D02*
X120285714Y-94792914D01*
X120285714Y-94792914D02*
X120333333Y-94983390D01*
X120333333Y-94983390D02*
X120333333Y-95126247D01*
X120333333Y-95126247D02*
X120285714Y-95316723D01*
X120285714Y-95316723D02*
X120238095Y-95411961D01*
X120238095Y-95411961D02*
X120142857Y-95507200D01*
X120142857Y-95507200D02*
X120000000Y-95554819D01*
X120000000Y-95554819D02*
X119761905Y-95554819D01*
X121238095Y-94554819D02*
X120761905Y-94554819D01*
X120761905Y-94554819D02*
X120714286Y-95031009D01*
X120714286Y-95031009D02*
X120761905Y-94983390D01*
X120761905Y-94983390D02*
X120857143Y-94935771D01*
X120857143Y-94935771D02*
X121095238Y-94935771D01*
X121095238Y-94935771D02*
X121190476Y-94983390D01*
X121190476Y-94983390D02*
X121238095Y-95031009D01*
X121238095Y-95031009D02*
X121285714Y-95126247D01*
X121285714Y-95126247D02*
X121285714Y-95364342D01*
X121285714Y-95364342D02*
X121238095Y-95459580D01*
X121238095Y-95459580D02*
X121190476Y-95507200D01*
X121190476Y-95507200D02*
X121095238Y-95554819D01*
X121095238Y-95554819D02*
X120857143Y-95554819D01*
X120857143Y-95554819D02*
X120761905Y-95507200D01*
X120761905Y-95507200D02*
X120714286Y-95459580D01*
X133658333Y-86024819D02*
X133325000Y-85548628D01*
X133086905Y-86024819D02*
X133086905Y-85024819D01*
X133086905Y-85024819D02*
X133467857Y-85024819D01*
X133467857Y-85024819D02*
X133563095Y-85072438D01*
X133563095Y-85072438D02*
X133610714Y-85120057D01*
X133610714Y-85120057D02*
X133658333Y-85215295D01*
X133658333Y-85215295D02*
X133658333Y-85358152D01*
X133658333Y-85358152D02*
X133610714Y-85453390D01*
X133610714Y-85453390D02*
X133563095Y-85501009D01*
X133563095Y-85501009D02*
X133467857Y-85548628D01*
X133467857Y-85548628D02*
X133086905Y-85548628D01*
X134039286Y-85120057D02*
X134086905Y-85072438D01*
X134086905Y-85072438D02*
X134182143Y-85024819D01*
X134182143Y-85024819D02*
X134420238Y-85024819D01*
X134420238Y-85024819D02*
X134515476Y-85072438D01*
X134515476Y-85072438D02*
X134563095Y-85120057D01*
X134563095Y-85120057D02*
X134610714Y-85215295D01*
X134610714Y-85215295D02*
X134610714Y-85310533D01*
X134610714Y-85310533D02*
X134563095Y-85453390D01*
X134563095Y-85453390D02*
X133991667Y-86024819D01*
X133991667Y-86024819D02*
X134610714Y-86024819D01*
X134761905Y-109854819D02*
X134761905Y-108854819D01*
X134761905Y-108854819D02*
X135000000Y-108854819D01*
X135000000Y-108854819D02*
X135142857Y-108902438D01*
X135142857Y-108902438D02*
X135238095Y-108997676D01*
X135238095Y-108997676D02*
X135285714Y-109092914D01*
X135285714Y-109092914D02*
X135333333Y-109283390D01*
X135333333Y-109283390D02*
X135333333Y-109426247D01*
X135333333Y-109426247D02*
X135285714Y-109616723D01*
X135285714Y-109616723D02*
X135238095Y-109711961D01*
X135238095Y-109711961D02*
X135142857Y-109807200D01*
X135142857Y-109807200D02*
X135000000Y-109854819D01*
X135000000Y-109854819D02*
X134761905Y-109854819D01*
X135714286Y-108950057D02*
X135761905Y-108902438D01*
X135761905Y-108902438D02*
X135857143Y-108854819D01*
X135857143Y-108854819D02*
X136095238Y-108854819D01*
X136095238Y-108854819D02*
X136190476Y-108902438D01*
X136190476Y-108902438D02*
X136238095Y-108950057D01*
X136238095Y-108950057D02*
X136285714Y-109045295D01*
X136285714Y-109045295D02*
X136285714Y-109140533D01*
X136285714Y-109140533D02*
X136238095Y-109283390D01*
X136238095Y-109283390D02*
X135666667Y-109854819D01*
X135666667Y-109854819D02*
X136285714Y-109854819D01*
X128666666Y-85454819D02*
X128666666Y-86169104D01*
X128666666Y-86169104D02*
X128619047Y-86311961D01*
X128619047Y-86311961D02*
X128523809Y-86407200D01*
X128523809Y-86407200D02*
X128380952Y-86454819D01*
X128380952Y-86454819D02*
X128285714Y-86454819D01*
X129666666Y-86454819D02*
X129095238Y-86454819D01*
X129380952Y-86454819D02*
X129380952Y-85454819D01*
X129380952Y-85454819D02*
X129285714Y-85597676D01*
X129285714Y-85597676D02*
X129190476Y-85692914D01*
X129190476Y-85692914D02*
X129095238Y-85740533D01*
X133158333Y-95024819D02*
X132825000Y-94548628D01*
X132586905Y-95024819D02*
X132586905Y-94024819D01*
X132586905Y-94024819D02*
X132967857Y-94024819D01*
X132967857Y-94024819D02*
X133063095Y-94072438D01*
X133063095Y-94072438D02*
X133110714Y-94120057D01*
X133110714Y-94120057D02*
X133158333Y-94215295D01*
X133158333Y-94215295D02*
X133158333Y-94358152D01*
X133158333Y-94358152D02*
X133110714Y-94453390D01*
X133110714Y-94453390D02*
X133063095Y-94501009D01*
X133063095Y-94501009D02*
X132967857Y-94548628D01*
X132967857Y-94548628D02*
X132586905Y-94548628D01*
X134015476Y-94358152D02*
X134015476Y-95024819D01*
X133777381Y-93977200D02*
X133539286Y-94691485D01*
X133539286Y-94691485D02*
X134158333Y-94691485D01*
X124658333Y-103024819D02*
X124325000Y-102548628D01*
X124086905Y-103024819D02*
X124086905Y-102024819D01*
X124086905Y-102024819D02*
X124467857Y-102024819D01*
X124467857Y-102024819D02*
X124563095Y-102072438D01*
X124563095Y-102072438D02*
X124610714Y-102120057D01*
X124610714Y-102120057D02*
X124658333Y-102215295D01*
X124658333Y-102215295D02*
X124658333Y-102358152D01*
X124658333Y-102358152D02*
X124610714Y-102453390D01*
X124610714Y-102453390D02*
X124563095Y-102501009D01*
X124563095Y-102501009D02*
X124467857Y-102548628D01*
X124467857Y-102548628D02*
X124086905Y-102548628D01*
X125610714Y-103024819D02*
X125039286Y-103024819D01*
X125325000Y-103024819D02*
X125325000Y-102024819D01*
X125325000Y-102024819D02*
X125229762Y-102167676D01*
X125229762Y-102167676D02*
X125134524Y-102262914D01*
X125134524Y-102262914D02*
X125039286Y-102310533D01*
X120158333Y-103454819D02*
X119825000Y-102978628D01*
X119586905Y-103454819D02*
X119586905Y-102454819D01*
X119586905Y-102454819D02*
X119967857Y-102454819D01*
X119967857Y-102454819D02*
X120063095Y-102502438D01*
X120063095Y-102502438D02*
X120110714Y-102550057D01*
X120110714Y-102550057D02*
X120158333Y-102645295D01*
X120158333Y-102645295D02*
X120158333Y-102788152D01*
X120158333Y-102788152D02*
X120110714Y-102883390D01*
X120110714Y-102883390D02*
X120063095Y-102931009D01*
X120063095Y-102931009D02*
X119967857Y-102978628D01*
X119967857Y-102978628D02*
X119586905Y-102978628D01*
X121015476Y-102454819D02*
X120825000Y-102454819D01*
X120825000Y-102454819D02*
X120729762Y-102502438D01*
X120729762Y-102502438D02*
X120682143Y-102550057D01*
X120682143Y-102550057D02*
X120586905Y-102692914D01*
X120586905Y-102692914D02*
X120539286Y-102883390D01*
X120539286Y-102883390D02*
X120539286Y-103264342D01*
X120539286Y-103264342D02*
X120586905Y-103359580D01*
X120586905Y-103359580D02*
X120634524Y-103407200D01*
X120634524Y-103407200D02*
X120729762Y-103454819D01*
X120729762Y-103454819D02*
X120920238Y-103454819D01*
X120920238Y-103454819D02*
X121015476Y-103407200D01*
X121015476Y-103407200D02*
X121063095Y-103359580D01*
X121063095Y-103359580D02*
X121110714Y-103264342D01*
X121110714Y-103264342D02*
X121110714Y-103026247D01*
X121110714Y-103026247D02*
X121063095Y-102931009D01*
X121063095Y-102931009D02*
X121015476Y-102883390D01*
X121015476Y-102883390D02*
X120920238Y-102835771D01*
X120920238Y-102835771D02*
X120729762Y-102835771D01*
X120729762Y-102835771D02*
X120634524Y-102883390D01*
X120634524Y-102883390D02*
X120586905Y-102931009D01*
X120586905Y-102931009D02*
X120539286Y-103026247D01*
X128261905Y-101354819D02*
X128261905Y-100354819D01*
X128261905Y-100354819D02*
X128500000Y-100354819D01*
X128500000Y-100354819D02*
X128642857Y-100402438D01*
X128642857Y-100402438D02*
X128738095Y-100497676D01*
X128738095Y-100497676D02*
X128785714Y-100592914D01*
X128785714Y-100592914D02*
X128833333Y-100783390D01*
X128833333Y-100783390D02*
X128833333Y-100926247D01*
X128833333Y-100926247D02*
X128785714Y-101116723D01*
X128785714Y-101116723D02*
X128738095Y-101211961D01*
X128738095Y-101211961D02*
X128642857Y-101307200D01*
X128642857Y-101307200D02*
X128500000Y-101354819D01*
X128500000Y-101354819D02*
X128261905Y-101354819D01*
X129785714Y-101354819D02*
X129214286Y-101354819D01*
X129500000Y-101354819D02*
X129500000Y-100354819D01*
X129500000Y-100354819D02*
X129404762Y-100497676D01*
X129404762Y-100497676D02*
X129309524Y-100592914D01*
X129309524Y-100592914D02*
X129214286Y-100640533D01*
X135761905Y-101854819D02*
X135761905Y-100854819D01*
X135761905Y-100854819D02*
X136000000Y-100854819D01*
X136000000Y-100854819D02*
X136142857Y-100902438D01*
X136142857Y-100902438D02*
X136238095Y-100997676D01*
X136238095Y-100997676D02*
X136285714Y-101092914D01*
X136285714Y-101092914D02*
X136333333Y-101283390D01*
X136333333Y-101283390D02*
X136333333Y-101426247D01*
X136333333Y-101426247D02*
X136285714Y-101616723D01*
X136285714Y-101616723D02*
X136238095Y-101711961D01*
X136238095Y-101711961D02*
X136142857Y-101807200D01*
X136142857Y-101807200D02*
X136000000Y-101854819D01*
X136000000Y-101854819D02*
X135761905Y-101854819D01*
X137190476Y-101188152D02*
X137190476Y-101854819D01*
X136952381Y-100807200D02*
X136714286Y-101521485D01*
X136714286Y-101521485D02*
X137333333Y-101521485D01*
X126333333Y-85454819D02*
X126000000Y-84978628D01*
X125761905Y-85454819D02*
X125761905Y-84454819D01*
X125761905Y-84454819D02*
X126142857Y-84454819D01*
X126142857Y-84454819D02*
X126238095Y-84502438D01*
X126238095Y-84502438D02*
X126285714Y-84550057D01*
X126285714Y-84550057D02*
X126333333Y-84645295D01*
X126333333Y-84645295D02*
X126333333Y-84788152D01*
X126333333Y-84788152D02*
X126285714Y-84883390D01*
X126285714Y-84883390D02*
X126238095Y-84931009D01*
X126238095Y-84931009D02*
X126142857Y-84978628D01*
X126142857Y-84978628D02*
X125761905Y-84978628D01*
X127238095Y-84454819D02*
X126761905Y-84454819D01*
X126761905Y-84454819D02*
X126714286Y-84931009D01*
X126714286Y-84931009D02*
X126761905Y-84883390D01*
X126761905Y-84883390D02*
X126857143Y-84835771D01*
X126857143Y-84835771D02*
X127095238Y-84835771D01*
X127095238Y-84835771D02*
X127190476Y-84883390D01*
X127190476Y-84883390D02*
X127238095Y-84931009D01*
X127238095Y-84931009D02*
X127285714Y-85026247D01*
X127285714Y-85026247D02*
X127285714Y-85264342D01*
X127285714Y-85264342D02*
X127238095Y-85359580D01*
X127238095Y-85359580D02*
X127190476Y-85407200D01*
X127190476Y-85407200D02*
X127095238Y-85454819D01*
X127095238Y-85454819D02*
X126857143Y-85454819D01*
X126857143Y-85454819D02*
X126761905Y-85407200D01*
X126761905Y-85407200D02*
X126714286Y-85359580D01*
X120261905Y-87454819D02*
X120261905Y-86454819D01*
X120261905Y-86454819D02*
X120500000Y-86454819D01*
X120500000Y-86454819D02*
X120642857Y-86502438D01*
X120642857Y-86502438D02*
X120738095Y-86597676D01*
X120738095Y-86597676D02*
X120785714Y-86692914D01*
X120785714Y-86692914D02*
X120833333Y-86883390D01*
X120833333Y-86883390D02*
X120833333Y-87026247D01*
X120833333Y-87026247D02*
X120785714Y-87216723D01*
X120785714Y-87216723D02*
X120738095Y-87311961D01*
X120738095Y-87311961D02*
X120642857Y-87407200D01*
X120642857Y-87407200D02*
X120500000Y-87454819D01*
X120500000Y-87454819D02*
X120261905Y-87454819D01*
X121166667Y-86454819D02*
X121833333Y-86454819D01*
X121833333Y-86454819D02*
X121404762Y-87454819D01*
X135761905Y-93854819D02*
X135761905Y-92854819D01*
X135761905Y-92854819D02*
X136000000Y-92854819D01*
X136000000Y-92854819D02*
X136142857Y-92902438D01*
X136142857Y-92902438D02*
X136238095Y-92997676D01*
X136238095Y-92997676D02*
X136285714Y-93092914D01*
X136285714Y-93092914D02*
X136333333Y-93283390D01*
X136333333Y-93283390D02*
X136333333Y-93426247D01*
X136333333Y-93426247D02*
X136285714Y-93616723D01*
X136285714Y-93616723D02*
X136238095Y-93711961D01*
X136238095Y-93711961D02*
X136142857Y-93807200D01*
X136142857Y-93807200D02*
X136000000Y-93854819D01*
X136000000Y-93854819D02*
X135761905Y-93854819D01*
X137190476Y-92854819D02*
X137000000Y-92854819D01*
X137000000Y-92854819D02*
X136904762Y-92902438D01*
X136904762Y-92902438D02*
X136857143Y-92950057D01*
X136857143Y-92950057D02*
X136761905Y-93092914D01*
X136761905Y-93092914D02*
X136714286Y-93283390D01*
X136714286Y-93283390D02*
X136714286Y-93664342D01*
X136714286Y-93664342D02*
X136761905Y-93759580D01*
X136761905Y-93759580D02*
X136809524Y-93807200D01*
X136809524Y-93807200D02*
X136904762Y-93854819D01*
X136904762Y-93854819D02*
X137095238Y-93854819D01*
X137095238Y-93854819D02*
X137190476Y-93807200D01*
X137190476Y-93807200D02*
X137238095Y-93759580D01*
X137238095Y-93759580D02*
X137285714Y-93664342D01*
X137285714Y-93664342D02*
X137285714Y-93426247D01*
X137285714Y-93426247D02*
X137238095Y-93331009D01*
X137238095Y-93331009D02*
X137190476Y-93283390D01*
X137190476Y-93283390D02*
X137095238Y-93235771D01*
X137095238Y-93235771D02*
X136904762Y-93235771D01*
X136904762Y-93235771D02*
X136809524Y-93283390D01*
X136809524Y-93283390D02*
X136761905Y-93331009D01*
X136761905Y-93331009D02*
X136714286Y-93426247D01*
X123833333Y-96384819D02*
X123500000Y-95908628D01*
X123261905Y-96384819D02*
X123261905Y-95384819D01*
X123261905Y-95384819D02*
X123642857Y-95384819D01*
X123642857Y-95384819D02*
X123738095Y-95432438D01*
X123738095Y-95432438D02*
X123785714Y-95480057D01*
X123785714Y-95480057D02*
X123833333Y-95575295D01*
X123833333Y-95575295D02*
X123833333Y-95718152D01*
X123833333Y-95718152D02*
X123785714Y-95813390D01*
X123785714Y-95813390D02*
X123738095Y-95861009D01*
X123738095Y-95861009D02*
X123642857Y-95908628D01*
X123642857Y-95908628D02*
X123261905Y-95908628D01*
X124166667Y-95384819D02*
X124785714Y-95384819D01*
X124785714Y-95384819D02*
X124452381Y-95765771D01*
X124452381Y-95765771D02*
X124595238Y-95765771D01*
X124595238Y-95765771D02*
X124690476Y-95813390D01*
X124690476Y-95813390D02*
X124738095Y-95861009D01*
X124738095Y-95861009D02*
X124785714Y-95956247D01*
X124785714Y-95956247D02*
X124785714Y-96194342D01*
X124785714Y-96194342D02*
X124738095Y-96289580D01*
X124738095Y-96289580D02*
X124690476Y-96337200D01*
X124690476Y-96337200D02*
X124595238Y-96384819D01*
X124595238Y-96384819D02*
X124309524Y-96384819D01*
X124309524Y-96384819D02*
X124214286Y-96337200D01*
X124214286Y-96337200D02*
X124166667Y-96289580D01*
X132158333Y-103024819D02*
X131825000Y-102548628D01*
X131586905Y-103024819D02*
X131586905Y-102024819D01*
X131586905Y-102024819D02*
X131967857Y-102024819D01*
X131967857Y-102024819D02*
X132063095Y-102072438D01*
X132063095Y-102072438D02*
X132110714Y-102120057D01*
X132110714Y-102120057D02*
X132158333Y-102215295D01*
X132158333Y-102215295D02*
X132158333Y-102358152D01*
X132158333Y-102358152D02*
X132110714Y-102453390D01*
X132110714Y-102453390D02*
X132063095Y-102501009D01*
X132063095Y-102501009D02*
X131967857Y-102548628D01*
X131967857Y-102548628D02*
X131586905Y-102548628D01*
X132491667Y-102024819D02*
X133158333Y-102024819D01*
X133158333Y-102024819D02*
X132729762Y-103024819D01*
X121261905Y-104454819D02*
X121261905Y-103454819D01*
X121261905Y-103454819D02*
X121500000Y-103454819D01*
X121500000Y-103454819D02*
X121642857Y-103502438D01*
X121642857Y-103502438D02*
X121738095Y-103597676D01*
X121738095Y-103597676D02*
X121785714Y-103692914D01*
X121785714Y-103692914D02*
X121833333Y-103883390D01*
X121833333Y-103883390D02*
X121833333Y-104026247D01*
X121833333Y-104026247D02*
X121785714Y-104216723D01*
X121785714Y-104216723D02*
X121738095Y-104311961D01*
X121738095Y-104311961D02*
X121642857Y-104407200D01*
X121642857Y-104407200D02*
X121500000Y-104454819D01*
X121500000Y-104454819D02*
X121261905Y-104454819D01*
X122166667Y-103454819D02*
X122785714Y-103454819D01*
X122785714Y-103454819D02*
X122452381Y-103835771D01*
X122452381Y-103835771D02*
X122595238Y-103835771D01*
X122595238Y-103835771D02*
X122690476Y-103883390D01*
X122690476Y-103883390D02*
X122738095Y-103931009D01*
X122738095Y-103931009D02*
X122785714Y-104026247D01*
X122785714Y-104026247D02*
X122785714Y-104264342D01*
X122785714Y-104264342D02*
X122738095Y-104359580D01*
X122738095Y-104359580D02*
X122690476Y-104407200D01*
X122690476Y-104407200D02*
X122595238Y-104454819D01*
X122595238Y-104454819D02*
X122309524Y-104454819D01*
X122309524Y-104454819D02*
X122214286Y-104407200D01*
X122214286Y-104407200D02*
X122166667Y-104359580D01*
D12*
%TO.C,D5*%
X118000000Y-95990000D02*
X122800000Y-95990000D01*
X118000000Y-96800000D02*
X118000000Y-95990000D01*
X118200000Y-99010000D02*
X122800000Y-99010000D01*
%TO.C,R2*%
X133587742Y-86477500D02*
X134062258Y-86477500D01*
X133587742Y-87522500D02*
X134062258Y-87522500D01*
%TO.C,D2*%
X137800000Y-105490000D02*
X133200000Y-105490000D01*
X138000000Y-107700000D02*
X138000000Y-108510000D01*
X138000000Y-108510000D02*
X133200000Y-108510000D01*
%TO.C,J1*%
X126100000Y-88350000D02*
X126100000Y-89350000D01*
X126100000Y-88350000D02*
X127100000Y-88350000D01*
X126400000Y-90100000D02*
X127050000Y-90100000D01*
X126400000Y-91100000D02*
X127050000Y-91100000D01*
X127050000Y-89300000D02*
X129150000Y-89300000D01*
X127050000Y-92900000D02*
X127050000Y-89300000D01*
X129150000Y-88650000D02*
X129150000Y-89300000D01*
X129200000Y-92500000D02*
X129800000Y-92500000D01*
X129200000Y-92900000D02*
X129200000Y-92500000D01*
X129800000Y-92500000D02*
X129800000Y-92900000D01*
X129850000Y-88650000D02*
X129850000Y-89300000D01*
X131950000Y-89300000D02*
X129850000Y-89300000D01*
X131950000Y-89300000D02*
X131950000Y-92900000D01*
X131950000Y-90100000D02*
X132600000Y-90100000D01*
X131950000Y-91100000D02*
X132600000Y-91100000D01*
X131950000Y-92900000D02*
X127050000Y-92900000D01*
X126400000Y-88650000D02*
X132600000Y-88650000D01*
X132600000Y-93550000D01*
X126400000Y-93550000D01*
X126400000Y-88650000D01*
%TO.C,R4*%
X133087742Y-95477500D02*
X133562258Y-95477500D01*
X133087742Y-96522500D02*
X133562258Y-96522500D01*
%TO.C,R1*%
X124587742Y-103477500D02*
X125062258Y-103477500D01*
X124587742Y-104522500D02*
X125062258Y-104522500D01*
%TO.C,R6*%
X121762742Y-100977500D02*
X122237258Y-100977500D01*
X121762742Y-102022500D02*
X122237258Y-102022500D01*
%TO.C,D1*%
X130300000Y-96990000D02*
X125700000Y-96990000D01*
X130500000Y-99200000D02*
X130500000Y-100010000D01*
X130500000Y-100010000D02*
X125700000Y-100010000D01*
%TO.C,D4*%
X138800000Y-97490000D02*
X134200000Y-97490000D01*
X139000000Y-99700000D02*
X139000000Y-100510000D01*
X139000000Y-100510000D02*
X134200000Y-100510000D01*
%TO.C,R5*%
X125237258Y-86977500D02*
X124762742Y-86977500D01*
X125237258Y-88022500D02*
X124762742Y-88022500D01*
%TO.C,D7*%
X120500000Y-88490000D02*
X125300000Y-88490000D01*
X120500000Y-89300000D02*
X120500000Y-88490000D01*
X120700000Y-91510000D02*
X125300000Y-91510000D01*
%TO.C,D6*%
X138800000Y-89490000D02*
X134200000Y-89490000D01*
X139000000Y-91700000D02*
X139000000Y-92510000D01*
X139000000Y-92510000D02*
X134200000Y-92510000D01*
%TO.C,R3*%
X124237258Y-93977500D02*
X123762742Y-93977500D01*
X124237258Y-95022500D02*
X123762742Y-95022500D01*
%TO.C,R7*%
X132087742Y-103477500D02*
X132562258Y-103477500D01*
X132087742Y-104522500D02*
X132562258Y-104522500D01*
%TO.C,D3*%
X120000000Y-105490000D02*
X124800000Y-105490000D01*
X120000000Y-106300000D02*
X120000000Y-105490000D01*
X120200000Y-108510000D02*
X124800000Y-108510000D01*
%TD*%
M02*
